<?xml version="1.0" standalone="no"?>
<!DOCTYPE svg PUBLIC "-//W3C//DTD SVG 20010904//EN"
 "http://www.w3.org/TR/2001/REC-SVG-20010904/DTD/svg10.dtd">
<svg version="1.0" xmlns="http://www.w3.org/2000/svg"
 width="358.000000pt" height="360.000000pt" viewBox="0 0 358.000000 360.000000"
 preserveAspectRatio="xMidYMid meet">

<g transform="translate(0.000000,360.000000) scale(0.100000,-0.100000)"
fill="#fff" stroke="none">
<path d="M1670 3504 c-14 -2 -63 -9 -110 -15 -183 -25 -423 -106 -597 -203
-203 -113 -451 -335 -569 -511 -215 -318 -317 -662 -301 -1020 16 -353 131
-682 337 -960 238 -320 615 -560 1015 -645 129 -27 399 -38 543 -21 661 77
1211 521 1411 1141 72 224 96 386 88 595 -12 300 -99 588 -250 830 -277 445
-757 749 -1269 804 -92 10 -243 13 -298 5z m104 -222 c2 -4 1 -14 -4 -22 -7
-11 -12 -12 -21 -3 -6 6 -8 16 -5 22 8 13 23 14 30 3z m409 -112 l32 -12 -29
-13 c-16 -7 -34 -25 -41 -41 l-13 -29 -11 28 c-6 15 -22 32 -36 39 -31 14 -32
26 -3 30 14 2 29 15 37 33 l14 30 9 -27 c6 -16 21 -31 41 -38z m-723 -1 c0
-24 -23 -21 -28 4 -2 10 3 17 12 17 10 0 16 -9 16 -21z m-331 -23 c9 -10 8
-16 -4 -26 -19 -16 -41 1 -32 24 8 20 21 20 36 2z m1427 -97 c10 -17 -13 -36
-27 -22 -12 12 -4 33 11 33 5 0 12 -5 16 -11z m-716 -182 c0 -8 -3 -17 -7 -20
-9 -9 -34 13 -27 24 8 14 34 11 34 -4z m-480 -27 c0 -11 12 -22 33 -30 l32
-12 -30 -13 c-16 -7 -32 -23 -35 -35 -3 -11 -9 -21 -15 -21 -5 0 -12 10 -15
21 -3 12 -19 28 -35 35 l-30 13 32 12 c20 7 33 20 37 36 7 28 26 23 26 -6z
m-460 -5 c0 -8 -9 -15 -20 -15 -20 0 -26 11 -13 23 12 13 33 7 33 -8z m1894
-60 c4 -15 16 -27 31 -31 32 -8 32 -22 1 -30 -16 -4 -29 -18 -37 -37 l-12 -32
-9 31 c-7 23 -19 35 -42 42 l-31 9 33 13 c20 7 34 21 38 36 8 31 20 31 28 -1z
m-446 -62 c-2 -10 -10 -18 -18 -18 -8 0 -16 8 -18 18 -2 12 3 17 18 17 15 0
20 -5 18 -17z m-423 -178 c244 -51 429 -243 471 -489 9 -50 13 -105 9 -125 -9
-45 -20 -27 -29 47 -28 219 -216 430 -432 486 -72 19 -210 21 -286 5 -207 -43
-403 -240 -447 -449 -7 -30 -14 -66 -17 -80 -5 -23 -6 -23 -16 -6 -12 21 -4
107 18 186 85 304 408 492 729 425z m-1201 -20 c4 -15 16 -27 31 -31 32 -8 32
-18 0 -32 -13 -6 -27 -23 -31 -37 -7 -28 -24 -24 -24 6 0 12 -12 24 -32 32
l-33 13 30 15 c18 8 31 23 33 37 4 29 18 28 26 -3z m366 -95 c0 -11 -4 -20
-10 -20 -5 0 -10 2 -10 4 0 2 -3 11 -6 20 -4 11 -1 16 10 16 9 0 16 -8 16 -20z
m1530 -54 c0 -8 -4 -17 -9 -21 -12 -7 -24 12 -16 25 9 15 25 12 25 -4z m480 0
c0 -16 -18 -31 -27 -22 -8 8 5 36 17 36 5 0 10 -6 10 -14z m-1300 -130 c0 -18
3 -60 6 -94 6 -57 8 -60 36 -64 27 -4 33 1 71 59 36 57 57 77 57 55 0 -5 -11
-36 -25 -70 -14 -34 -25 -64 -25 -67 0 -2 14 -11 30 -20 30 -15 31 -15 91 35
34 28 64 49 66 46 3 -3 -16 -32 -42 -66 -43 -54 -47 -63 -37 -85 14 -31 27
-31 94 0 61 29 96 33 58 7 -80 -54 -129 -119 -102 -136 4 -2 80 -14 167 -26
370 -48 729 -151 994 -285 76 -38 89 -47 84 -65 -9 -32 -19 -33 -80 -2 -261
132 -589 230 -933 279 -155 22 -231 27 -470 31 -175 2 -327 -1 -395 -8 -464
-48 -741 -121 -1171 -306 -7 -3 -16 8 -22 24 l-10 30 116 50 c298 126 634 214
997 259 116 14 138 19 147 37 9 17 5 25 -29 55 -21 20 -52 46 -68 57 -48 34
-24 36 44 4 75 -36 82 -36 99 -9 12 19 9 28 -32 90 -26 38 -44 69 -42 69 3 0
32 -23 65 -50 55 -45 63 -49 83 -39 13 6 25 13 26 15 2 1 -7 34 -19 73 -17 53
-20 74 -11 83 8 8 19 -6 44 -57 18 -37 36 -67 41 -66 4 0 18 1 31 1 22 0 25 6
31 53 14 120 18 137 26 137 5 0 9 -15 9 -34z m-1330 -146 c0 -11 -6 -20 -14
-20 -18 0 -29 16 -21 30 11 18 35 11 35 -10z m2448 -33 c2 -10 -3 -17 -12 -17
-18 0 -29 16 -21 31 9 14 29 6 33 -14z m-2034 5 c8 -13 -11 -35 -23 -28 -16
10 -14 36 3 36 8 0 17 -4 20 -8z m1061 -382 c244 -17 515 -66 772 -141 78 -23
140 -46 137 -50 -2 -5 -30 -16 -62 -25 -82 -25 -89 -34 -69 -84 11 -29 12 -40
4 -38 -7 3 -58 18 -114 33 -57 16 -103 32 -103 37 0 4 6 8 13 8 7 0 22 6 33
14 31 24 0 44 -86 56 -41 5 -92 12 -112 16 -30 5 -47 1 -80 -19 -44 -26 -89
-77 -98 -111 -4 -14 -30 -28 -90 -48 -46 -15 -90 -28 -98 -28 -25 0 -92 63
-112 105 -34 69 -47 77 -147 78 -68 2 -95 -2 -121 -16 -56 -31 -42 -52 97
-147 69 -47 127 -91 129 -97 2 -8 -6 -13 -22 -13 -23 0 -26 -4 -26 -32 -1 -25
-12 -45 -45 -81 -47 -51 -60 -54 -112 -21 -36 23 -27 31 37 36 33 2 62 7 66
11 3 3 2 23 -2 44 -9 37 -14 40 -130 98 -67 33 -138 75 -159 93 -31 28 -42 32
-69 27 -143 -29 -233 -79 -278 -155 -53 -89 -153 -122 -270 -89 -33 9 -38 14
-38 39 0 18 14 49 34 77 18 27 45 71 60 100 28 56 25 55 141 67 69 8 213 65
220 87 4 10 -5 35 -20 58 -14 22 -25 44 -25 49 0 15 284 55 460 65 115 7 139
6 285 -3z m313 -487 c23 -19 67 -16 110 6 67 34 119 36 214 7 76 -23 87 -30
99 -57 10 -26 9 -43 -6 -107 -21 -94 -42 -145 -54 -138 -5 3 -26 31 -46 62
-37 55 -37 56 -84 53 -90 -5 -100 -1 -159 55 -66 62 -108 86 -152 86 -38 0
-46 -19 -31 -72 10 -34 10 -43 -2 -55 -12 -12 -19 -7 -50 33 -20 26 -37 54
-37 62 0 8 30 44 68 81 l67 66 24 -35 c13 -19 31 -41 39 -47z m-780 39 c4 -26
-13 -52 -35 -52 -20 0 -25 22 -13 54 12 33 43 32 48 -2z m-8 -156 c9 -12 7
-25 -9 -62 -12 -25 -21 -59 -21 -75 0 -25 8 -32 83 -68 45 -22 98 -54 117 -70
26 -23 55 -35 115 -47 l79 -16 21 24 c11 14 29 38 41 54 30 41 70 37 244 -20
123 -40 160 -48 245 -52 54 -3 105 -10 113 -16 9 -8 12 -23 9 -42 -3 -17 -9
-50 -12 -73 -7 -38 -4 -47 34 -103 24 -34 41 -63 39 -65 -13 -11 -157 -79
-220 -104 -282 -111 -646 -131 -957 -51 -173 44 -367 136 -521 246 -91 65
-270 230 -270 249 0 19 195 194 233 209 18 8 56 17 86 20 30 4 73 16 95 28 32
16 77 23 211 33 232 17 231 17 245 1z"/>
</g>
</svg>
